<?xml version="1.0" encoding="UTF-8"?> <svg xmlns="http://www.w3.org/2000/svg" width="355" height="120" fill="none"><path d="M243.545 106.512h-2.349v13.26h2.349v-13.26zM249.291 119.772h-2.282v-9.993h2.282v1.542c.653-.945 1.559-1.764 3.125-1.764 2.254 0 3.556 1.514 3.556 3.85v6.369h-2.286v-5.674c0-1.56-.786-2.449-2.137-2.449s-2.258.918-2.258 2.495v5.624zM270.625 109.553c2.187 0 3.527 1.383 3.527 3.85v6.369h-2.31v-5.67c0-1.606-.727-2.449-2.007-2.449-1.281 0-2.152.857-2.152 2.494v5.625h-2.296v-5.699c0-1.563-.759-2.42-2.007-2.42-1.249 0-2.163.949-2.163 2.509v5.61h-2.278v-9.993h2.278v1.496c.649-.871 1.531-1.722 3.059-1.722 1.456 0 2.469.706 2.97 1.765.829-1.059 1.869-1.765 3.393-1.765M281.874 119.998a5.223 5.223 0 112.154-10.032 5.223 5.223 0 013.19 4.816 5.197 5.197 0 01-5.344 5.216zm0-8.434c-1.845 0-3.027 1.454-3.027 3.218 0 1.765 1.27 3.226 3.059 3.226 1.788 0 3.023-1.412 3.023-3.176 0-1.765-1.277-3.264-3.055-3.264M295.395 119.984a4.013 4.013 0 01-3.365-1.765v1.557h-2.304v-13.833h2.307v5.498c.727-1.037 1.781-1.888 3.365-1.888 2.378 0 4.671 1.888 4.671 5.23 0 3.341-2.269 5.201-4.671 5.201h-.003zm-.519-8.437c-1.541 0-2.924 1.26-2.924 3.236 0 1.976 1.383 3.207 2.924 3.207 1.542 0 2.871-1.228 2.871-3.207 0-1.98-1.301-3.236-2.871-3.236zM302.644 106.05h2.469v2.184h-2.469v-2.184zm.088 3.729h2.286v9.993h-2.286v-9.993zM310.633 105.943h-2.3v13.815h2.3v-13.815zM313.854 106.05h2.469v2.184h-2.469v-2.184zm.088 3.729h2.293v9.993h-2.293v-9.993zM325.526 119.772v-1.231a4.089 4.089 0 01-3.238 1.443c-1.901 0-3.549-1.059-3.549-3.105v-.014c0-2.156 1.707-3.208 4.06-3.208a8.027 8.027 0 012.741.42v-.257c0-1.384-.875-2.139-2.469-2.139a6.928 6.928 0 00-2.864.642l-.597-1.842a8.253 8.253 0 013.803-.846c2.938 0 4.381 1.559 4.381 4.234v5.939l-2.268-.036zm.042-4.234a6.409 6.409 0 00-2.289-.402c-1.411 0-2.268.593-2.268 1.619v.032c0 .963.843 1.468 1.919 1.468 1.513 0 2.638-.843 2.638-2.078v-.639zM332.994 119.772h-2.276v-9.993h2.276v2.244c.624-1.485 1.785-2.526 3.527-2.452v2.435h-.116c-1.997 0-3.418 1.309-3.418 3.966l.007 3.8zM338.757 106.05h2.47v2.184h-2.47v-2.184zm.089 3.729h2.321v9.993h-2.321v-9.993zM350.426 119.772v-1.231a4.036 4.036 0 01-3.21 1.443c-1.901 0-3.577-1.059-3.577-3.105v-.015c0-2.156 1.718-3.207 4.05-3.207a8.042 8.042 0 012.765.42v-.258c0-1.383-.86-2.138-2.448-2.138a6.676 6.676 0 00-2.85.642l-.652-1.842a8.415 8.415 0 013.809-.847c2.96 0 4.399 1.56 4.399 4.235v5.938l-2.286-.035zm.071-4.234a6.738 6.738 0 00-2.314-.403c-1.411 0-2.272.593-2.272 1.62v.032c0 .963.847 1.468 1.947 1.468 1.521 0 2.639-.844 2.639-2.079v-.638zM86.267 33.151h22.008v6.43H93.784v4.146h13.126v5.984H93.784v4.337h14.685v6.464H86.267v-27.36zM111.707 46.903v-.085c0-7.978 6.131-14.217 14.413-14.217 5.591 0 9.2 2.347 11.619 5.688l-5.689 4.44c-1.588-1.977-3.366-3.222-5.997-3.222-3.831 0-6.536 3.253-6.536 7.23v.08c0 4.112 2.705 7.305 6.536 7.305 2.854 0 4.529-1.334 6.18-3.313l5.7 4.072c-2.582 3.56-6.06 6.178-12.116 6.178-7.828 0-14.11-5.998-14.11-14.156zM141.708 33.151h7.548v10.23h9.743V33.15h7.595v27.361h-7.595V50.114h-9.743v10.398h-7.548v-27.36zM171.934 33.151h21.987v6.43H179.43v4.146h13.126v5.984H179.43v4.337h14.688v6.464h-22.184v-27.36zM196.298 33.151h8.498l6.201 17.301 6.226-17.3h8.297l-11.073 27.55h-7.044l-11.105-27.55zM228.68 33.151h22.026v6.43h-14.498v4.146h13.125v5.984h-13.125v4.337h14.67v6.464H228.68v-27.36zM255.256 33.148h12.953c4.19 0 7.09 1.086 8.931 2.957 1.58 1.57 2.424 3.68 2.424 6.383v.078c0 4.17-2.251 6.951-5.644 8.394l6.529 9.552h-8.759l-5.517-8.288h-3.323v8.288h-7.594V33.148zm12.6 13.116c2.596 0 4.064-1.25 4.064-3.236v-.078c0-2.152-1.542-3.25-4.106-3.25h-4.964v6.564h5.006zM283.888 33.148h12.893c4.201 0 7.097 1.086 8.921 2.957 1.601 1.57 2.441 3.68 2.441 6.383v.078c0 4.17-2.226 6.951-5.644 8.394l6.536 9.552h-8.727l-5.538-8.288h-3.305v8.288h-7.577V33.148zm12.583 13.116c2.564 0 4.049-1.25 4.049-3.236v-.078c0-2.152-1.556-3.25-4.092-3.25h-4.963v6.564h5.006zM320.256 33.151h-7.616v27.361h7.616v-27.36zM335.23 32.943h7.305l11.641 27.57h-8.113l-1.979-4.891H333.53l-1.958 4.89h-7.983l11.641-27.569zm6.66 16.768l-3.055-7.788-3.086 7.788h6.141zM133.041 68.265h-7.616v27.343h7.616V68.265zM137.517 90.1l13.69-15.448h-13.235v-6.387h23.722v5.498L147.98 89.207h13.714v6.401h-24.177V90.1zM186.852 93.752a15.121 15.121 0 01-8.325 2.42c-8.437 0-14.699-6.298-14.699-14.17v-.07c0-7.859 6.35-14.232 14.787-14.232 8.438 0 14.685 6.303 14.685 14.157v.074a13.567 13.567 0 01-2.416 7.855l2.822 2.392-3.842 4.267-3.012-2.693zm-5.471-4.83l-3.785-3.218 3.838-4.295 3.686 3.345c.328-.842.487-1.74.469-2.643v-.106c0-3.983-2.843-7.456-7.055-7.456-4.13 0-6.921 3.444-6.921 7.382v.075c0 3.966 2.822 7.441 7.009 7.441a7.507 7.507 0 002.766-.522M197.201 83.607V68.265h7.711v15.19c0 3.953 1.972 5.855 5.034 5.855s5.051-1.814 5.051-5.646v-15.4h7.708v15.174c0 8.822-5.066 12.703-12.808 12.703-7.817 0-12.699-3.941-12.699-12.509M235.277 68.265h-7.616v27.343h7.616V68.265zM240.575 68.265h21.99v6.433h-14.487v4.142h13.125v5.988h-13.125v4.333h14.713v6.447h-22.216V68.265zM266.96 68.265h12.949c4.159 0 7.055 1.083 8.907 2.964 1.591 1.563 2.409 3.673 2.409 6.373v.095c0 4.174-2.229 6.969-5.608 8.394l6.518 9.528h-8.758l-5.496-8.271h-3.326v8.27h-7.595V68.266zm12.582 13.112c2.579 0 4.082-1.249 4.082-3.221v-.089c0-2.152-1.588-3.239-4.113-3.239h-4.974v6.55h5.005zM295.37 68.265h10.561c9.778 0 15.44 5.646 15.44 13.514v.075c0 7.904-5.761 13.761-15.609 13.761H295.37v-27.35zm10.695 20.628c4.526 0 7.507-2.495 7.507-6.933v-.075c0-4.382-2.981-6.909-7.507-6.909h-3.111v13.917h3.111zM324.648 82.002v-.07c0-7.859 6.349-14.232 14.787-14.232 8.437 0 14.684 6.303 14.684 14.157v.074c0 7.855-6.349 14.245-14.769 14.245s-14.702-6.302-14.702-14.174zm21.739 0v-.07c0-3.939-2.853-7.383-7.037-7.383-4.183 0-6.942 3.367-6.942 7.305v.077c0 3.952 2.822 7.393 7.002 7.393s6.953-3.352 6.953-7.319M0 0h62.87L0 62.323V0z" fill="#fff"></path></svg> 