<?xml version="1.0" encoding="UTF-8"?> <svg xmlns="http://www.w3.org/2000/svg" width="246" height="73" fill="none"><g filter="url(#filter0_d_327_580)" fill="#fff"><path d="M30.47 37.159c0 3.22.788 3.956.788 5.17 0 1.737-1.635 2.95-3.48 2.95-3.32 0-4.428-2.107-4.534-4.48-3.003 3.322-6.486 4.48-10.544 4.48-4.373 0-8.7-3.006-8.7-7.856 0-6.388 4.85-8.172 10.757-8.857l4.684-.524c1.844-.213 3.322-.635 3.322-2.85 0-2.213-2.266-3.163-4.85-3.163-5.694 0-5.852 4.22-8.914 4.22-1.95 0-3.266-1.371-3.266-2.955 0-3.058 4.322-6.959 12.23-6.959 7.384 0 12.499 2.372 12.499 7.908l.008 12.916zm-7.699-5.536c-.852.792-2.427 1.056-3.322 1.214l-2.793.426c-3.215.477-4.957 1.477-4.957 3.798 0 1.737 1.635 3.164 4.259 3.164 4.215 0 6.813-2.742 6.813-5.591v-3.01zM63.865 41.17c0 2.5-1.133 4.148-3.748 4.148-2.614 0-3.747-1.648-3.747-4.148v-1.077h-.11c-2.33 3.066-5.34 5.225-10.05 5.225-4.996 0-10.447-2.5-10.447-10.901v-16.11c0-2.214.908-4.143 4.144-4.143s4.143 1.929 4.143 4.143v14.479c0 3.35 1.648 5.736 5.225 5.736a6.438 6.438 0 006.32-6.533V18.307c0-2.214.907-4.143 4.143-4.143 3.237 0 4.144 1.929 4.144 4.143l-.017 22.863zM99.669 41.17c0 2.738-1.278 4.199-4.016 4.199-2.614 0-4.015-1.46-4.015-4.199v-1.397h-.12c-1.46 3.77-5.05 5.596-9.368 5.596-7.422 0-13.93-5.417-13.93-16.914 0-8.517 4.319-16.489 13.687-16.489 3.956 0 6.997 1.644 8.764 4.505h.12V4.441C90.79 1.522 92.557 0 95.23 0c2.675 0 4.442 1.52 4.442 4.442L99.67 41.17zm-15.513-2.738c5.17 0 7.115-4.625 7.115-9.67 0-4.566-1.703-9.919-7.115-9.859-5.66 0-7.056 5.719-7.056 9.858 0 5.247 2.312 9.569 7.056 9.688v-.017zM140.025 34.872c0 4.207 1.035 5.174 1.035 6.758 0 2.274-2.129 3.862-4.552 3.862-4.344 0-5.792-2.76-5.928-5.863-3.93 4.343-8.483 5.863-13.789 5.863-5.723 0-11.378-3.93-11.378-10.275 0-8.342 6.345-10.684 14.053-11.583l6.136-.69c2.414-.277 4.344-.826 4.344-3.722 0-2.895-2.981-4.139-6.341-4.139-7.448 0-7.665 5.536-11.655 5.536-2.556 0-4.259-1.793-4.259-3.862 0-3.999 5.651-9.1 15.995-9.1 9.653 0 16.339 3.1 16.339 10.339v16.876zm-10.067-7.24c-1.103 1.035-3.172 1.38-4.343 1.589l-3.654.55c-4.207.621-6.481 1.928-6.481 4.965 0 2.274 2.129 4.135 5.587 4.135 5.514 0 8.891-3.586 8.891-7.308v-3.93zM162.173 11.983c7.423 0 12.959 4.2 12.959 8.338 0 2.555-1.882 3.833-4.135 3.833-4.199 0-2.679-5.234-9.066-5.234-3.467 0-7.542 2.372-7.542 10.404 0 5.535 2.615 9.125 7.482 9.125 6.205 0 4.867-5.719 9.552-5.719 2.252 0 3.709 1.644 3.709 3.407 0 3.896-4.378 9.25-13.504 9.25-10.952 0-16.122-6.755-16.122-16.063 0-10.22 5.779-17.34 16.667-17.34zM184.241 2.75a4.313 4.313 0 11.026 8.626 4.313 4.313 0 01-.026-8.625zm-4.143 15.556c0-2.214.907-4.143 4.143-4.143 3.236 0 4.143 1.93 4.143 4.143V41.17c0 2.214-.907 4.147-4.143 4.147-3.236 0-4.143-1.933-4.143-4.147V18.306zM197.587 20.35h-1.422c-2.325 0-3.292-.906-3.292-2.725 0-1.818.967-2.725 3.292-2.725h1.422V9.845c0-2.725 1.644-4.143 4.143-4.143 2.5 0 4.144 1.418 4.144 4.143V14.9h2.499c2.441 0 3.748.737 3.748 2.725 0 1.99-1.307 2.726-3.748 2.726h-2.499v16.56c0 1.253.681 1.93 2.159 1.93h1.192c1.819 0 2.896 1.026 2.896 2.785 0 2.384-2.044 3.692-6.017 3.692-6.022 0-8.517-2.5-8.517-7.384V20.35zM229.269 37.214h.107l4.684-17.46c.528-1.95 1.584-3.428 3.692-3.428a3.76 3.76 0 013.956 3.48 7.506 7.506 0 01-.584 2.427l-8.908 25.252c-1.844 5.272-3.952 8.014-8.806 8.014-3.407 0-4.851-1.703-4.851-3.534 0-2.053 1.478-3.109 3.535-3.109h.792c1 0 2.108-.05 2.687-2.427l-8.014-22.825c-.631-1.848-.95-2.691-.95-3.585a3.677 3.677 0 013.743-3.692c2.057 0 3.483 1.158 3.956 2.9l4.961 17.987zM125.344 59.536l-4.685-3.436a1.094 1.094 0 00-1.205-.077 1.16 1.16 0 00-.587 1.01v6.813a1.152 1.152 0 00.583 1.005c.167.097.356.149.549.149.234-.001.462-.076.652-.213l4.684-3.377a1.171 1.171 0 00.471-.937 1.164 1.164 0 00-.471-.937h.009z"></path><path d="M102.011 51.535c.012-.58.188-1.146.507-1.631 0 0 .341-.426-.255-.703-.469-.225-.767.252-.826.324-.06.072-.052.064-.069.098a5.131 5.131 0 00-.762 2.632c0 5.565 9.892 10.373 22.225 10.53v-4.458c-11.992-.123-20.82-2.606-20.82-6.792zM146.333 52.242a5.162 5.162 0 00-.758-2.632c-.021-.034-.051-.063-.072-.097-.021-.035-.354-.55-.826-.324-.596.28-.256.703-.256.703.321.484.498 1.05.511 1.63 0 3.565-6.443 5.894-15.756 6.58v4.36c9.884-1.222 17.157-5.434 17.157-10.22z"></path></g><defs><filter id="filter0_d_327_580" x="0" y="0" width="245.708" height="73" filterUnits="userSpaceOnUse" color-interpolation-filters="sRGB"><feFlood flood-opacity="0" result="BackgroundImageFix"></feFlood><feColorMatrix in="SourceAlpha" values="0 0 0 0 0 0 0 0 0 0 0 0 0 0 0 0 0 0 127 0" result="hardAlpha"></feColorMatrix><feOffset dy="4"></feOffset><feGaussianBlur stdDeviation="2"></feGaussianBlur><feComposite in2="hardAlpha" operator="out"></feComposite><feColorMatrix values="0 0 0 0 0 0 0 0 0 0 0 0 0 0 0 0 0 0 0.25 0"></feColorMatrix><feBlend in2="BackgroundImageFix" result="effect1_dropShadow_327_580"></feBlend><feBlend in="SourceGraphic" in2="effect1_dropShadow_327_580" result="shape"></feBlend></filter></defs></svg> 